<?xml version="1.0" encoding="UTF-8"?>
<svg id="Layer_2" xmlns="http://www.w3.org/2000/svg" xmlns:xlink="http://www.w3.org/1999/xlink" version="1.1" viewBox="0 0 200 200">
  <!-- Generator: Adobe Illustrator 29.3.1, SVG Export Plug-In . SVG Version: 2.1.0 Build 151)  -->
  <defs>
    <style>
      .st0 {
        filter: url(#drop-shadow-1);
      }

      .st1 {
        fill: #fff;
      }

      .st2 {
        fill: #ed82cf;
      }
    </style>
    <filter id="drop-shadow-1" x="19" y="2" width="173" height="213" filterUnits="userSpaceOnUse">
      <feOffset dx="5.7" dy="8.5"/>
      <feGaussianBlur result="blur" stdDeviation="11.3"/>
      <feFlood flood-color="#000" flood-opacity=".8"/>
      <feComposite in2="blur" operator="in"/>
      <feComposite in="SourceGraphic"/>
    </filter>
  </defs>
  <g class="st0">
    <path class="st1" d="M100.1,27.6c-28.9,0-52.4,24.1-52.4,53.8s28,66,49.5,89.8c1.5,1.7,4.1,1.7,5.6,0,21.5-23.7,49.5-61.4,49.5-89.8s-23.4-53.8-52.3-53.8h.1Z"/>
  </g>
  <path class="st2" d="M74.8,70.2c-.8-13.1,18.8-20,25.2-10.2,14.9-14.3,35.5,8.7,19.2,22,0,0-16.6,13.7-16.6,13.7-1.9,1.5-4.7,1.5-6.5-.1,0,0-16.2-14.2-16.2-14.2-3.3-2.8-5.1-6.8-5.1-11.2h0Z"/>
</svg>