<?xml version="1.0" encoding="UTF-8"?>
<svg id="Layer_1" xmlns="http://www.w3.org/2000/svg" version="1.1" viewBox="0 0 200 200">
  <!-- Generator: Adobe Illustrator 29.3.1, SVG Export Plug-In . SVG Version: 2.1.0 Build 151)  -->
  <path d="M100,37.5c-17.4,0-31.6,14.1-31.6,31.4s14.2,31.4,31.6,31.4,31.6-14.1,31.6-31.4-14.2-31.4-31.6-31.4ZM100,86.4c-9.7,0-17.5-7.8-17.6-17.5,0-9.7,7.9-17.6,17.6-17.6s17.6,7.9,17.6,17.6-7.9,17.5-17.5,17.5ZM173.9,73.6C173.9,33,140.7,0,100,0S26.1,33,26.1,73.6s45.5,95.9,65.1,122c3.7,4.9,10.6,5.8,15.5,2.2.8-.6,1.5-1.3,2.2-2.2,19.6-26.1,65.1-90.2,65.1-122ZM101.2,184.5l-1.2,1.6-1.2-1.6c-37-49.8-59.9-92.3-59.9-110.9,0-33.5,27.4-60.8,61.1-60.8s61.1,27.3,61.1,60.8c0,18.6-22.9,61.1-59.9,110.9h0Z"/>
</svg>